<svg version="1.1" id="Layer_1" xmlns="http://www.w3.org/2000/svg" x="0" y="0" viewBox="0 0 94.1 94.1" xml:space="preserve"><style/><linearGradient id="SVGID_1_" gradientUnits="userSpaceOnUse" x1="0" y1="47.044" x2="94.088" y2="47.044"><stop offset=".003" stop-color="#f0f0f0"/><stop offset="1" stop-color="#cecece"/></linearGradient><circle cx="47" cy="47" r="47" fill="url(#SVGID_1_)"/><linearGradient id="SVGID_2_" gradientUnits="userSpaceOnUse" x1="19.945" y1="74.144" x2="74.144" y2="19.945"><stop offset=".003" stop-color="#ff5f06"/><stop offset="1" stop-color="#ff9d01"/></linearGradient><circle cx="47" cy="47" r="38.3" fill="url(#SVGID_2_)"/><g id="XMLID_3_"><path id="XMLID_5_" d="M67.6 60.1l-.2-.5c-.7-1.7-9.6-4.3-10.3-4.3l-.6.1c-1.2.2-2.6 1.4-5.4 3.9-3.2-1.5-7.5-5.4-9.6-7.7-2.2-2.5-5-6.7-6-9.8 3.2-2.8 4.5-4 4.6-5.4.1-.7-1.5-9.9-3.1-10.8l-.5-.3c-1-.6-2.6-1.6-4.3-1.3-.4.1-.9.2-1.2.5-1.2.7-4 2.7-5.3 5.3-.8 1.6-1.2 16.2 9.7 28.4 10.8 12.2 24.1 12.7 26 12.3h.1l.2-.1c2.7-.9 5-3.5 5.8-4.6 1.8-2.2.7-4.5.1-5.7z" fill="#fff"/></g></svg>