<svg version="1.1" id="Layer_1" xmlns="http://www.w3.org/2000/svg" xmlns:xlink="http://www.w3.org/1999/xlink" x="0" y="0" viewBox="0 0 450 450" xml:space="preserve"><style/><g id="shape_4_1_"><g id="shape_4_3_"><image width="1835" height="1841" xlink:href="AB1C9BD6.png" transform="matrix(.24 0 0 .24 5.42 9.642)" overflow="visible" opacity=".06"/><image width="1596" height="1603" xlink:href="AB1C9BDA.png" transform="matrix(.24 0 0 .24 33.5 36.682)" overflow="visible" opacity=".15"/><path d="M42.5 408.3l25.8-94.1C52.4 286.6 44 255.4 44 223.3c0-100.2 81.6-181.7 181.7-181.7 48.6 0 94.2 18.9 128.6 53.3 34.3 34.3 53.2 80 53.2 128.5 0 100.2-81.6 181.7-181.7 181.7h-.1c-30.4 0-60.3-7.6-86.8-22.1l-96.4 25.3zm100.8-58.1l5.5 3.3c23.2 13.8 49.8 21 76.9 21.1h.1c83.3 0 151-67.7 151-151 0-40.4-15.7-78.3-44.2-106.8-28.5-28.5-66.4-44.3-106.8-44.3-83.3 0-151.1 67.7-151.1 151 0 28.5 8 56.3 23.1 80.4l3.6 5.7-15.3 55.7 57.2-15.1z" fill="#fff"/></g></g><linearGradient id="shape_3_3_" gradientUnits="userSpaceOnUse" x1="224.999" y1="401.974" x2="224.999" y2="48.03"><stop offset="0" stop-color="#20b038"/><stop offset="1" stop-color="#60d66a"/></linearGradient><path id="shape_3_1_" d="M48.8 402l24.9-90.9c-15.4-26.6-23.4-56.8-23.4-87.7C50.3 126.7 129 48 225.7 48c46.9 0 91 18.3 124.1 51.4 33.1 33.2 51.4 77.2 51.3 124.1 0 96.7-78.7 175.4-175.4 175.4h-.1c-29.4 0-58.2-7.4-83.8-21.3l-93 24.4z" fill="url(#shape_3_3_)"/><g id="shape_2_1_"><g id="shape_2_3_"><image width="1621" height="1628" xlink:href="AB1C9BDD.png" transform="matrix(.24 0 0 .24 30.5 30.682)" overflow="visible" opacity=".04"/><linearGradient id="SVGID_1_" gradientUnits="userSpaceOnUse" x1="225" y1="408.318" x2="225" y2="41.682"><stop offset="0" stop-color="#f9f9f9"/><stop offset="1" stop-color="#fff"/></linearGradient><path d="M42.5 408.3l25.8-94.1C52.4 286.6 44 255.4 44 223.3c0-100.2 81.6-181.7 181.7-181.7 48.6 0 94.2 18.9 128.6 53.3 34.3 34.3 53.2 80 53.2 128.5 0 100.2-81.6 181.7-181.7 181.7h-.1c-30.4 0-60.3-7.6-86.8-22.1l-96.4 25.3zm100.8-58.1l5.5 3.3c23.2 13.8 49.8 21 76.9 21.1h.1c83.3 0 151-67.7 151-151 0-40.4-15.7-78.3-44.2-106.8-28.5-28.5-66.4-44.3-106.8-44.3-83.3 0-151.1 67.7-151.1 151 0 28.5 8 56.3 23.1 80.4l3.6 5.7-15.3 55.7 57.2-15.1z" fill="url(#SVGID_1_)"/></g></g><g id="shape_1_1_"><g id="shape_1_3_"><image width="870" height="814" xlink:href="AB1C9BDE.png" transform="matrix(.24 0 0 .24 121.418 129.45)" overflow="visible" opacity=".06"/><path d="M180.3 147.4c-3.4-7.6-7-7.7-10.2-7.8-2.6-.1-5.7-.1-8.7-.1-3 0-7.9 1.1-12.1 5.7-4.2 4.5-15.9 15.5-15.9 37.9 0 22.3 16.3 43.9 18.5 47 2.3 3 31.4 50.3 77.6 68.5 38.4 15.1 46.2 12.1 54.5 11.4 8.3-.8 26.9-11 30.7-21.6 3.8-10.6 3.8-19.7 2.6-21.6-1.1-1.9-4.2-3-8.7-5.3-4.5-2.3-26.9-13.3-31-14.8-4.2-1.5-7.2-2.3-10.2 2.3-3 4.5-11.7 14.8-14.4 17.8-2.6 3-5.3 3.4-9.8 1.1-4.5-2.3-19.2-7.1-36.5-22.5-13.5-12-22.6-26.9-25.3-31.4-2.6-4.5-.3-7 2-9.3 2-2 4.5-5.3 6.8-8s3-4.5 4.5-7.6c1.5-3 .8-5.7-.4-8-1.1-2.3-9.9-24.7-14-33.7z" fill-rule="evenodd" clip-rule="evenodd" fill="#fff"/></g></g></svg>