<svg version="1.1" id="Layer_1" xmlns="http://www.w3.org/2000/svg" xmlns:xlink="http://www.w3.org/1999/xlink" x="0"
     y="0" viewBox="0 0 450 450" xml:space="preserve"><style/>
    <path id="shape_3"
          d="M48.8 402l24.9-90.9c-15.4-26.6-23.4-56.8-23.4-87.7C50.3 126.7 129 48 225.7 48c46.9 0 91 18.3 124.1 51.4 33.1 33.2 51.4 77.2 51.3 124.1 0 96.7-78.7 175.4-175.4 175.4h-.1c-29.4 0-58.2-7.4-83.8-21.3l-93 24.4z"
          fill="#20a0e1"/>
    <g id="shape_2">
        <g id="shape_2_2_">
            <image width="1621" height="1628" xlink:href="E6EF74FB.png" transform="matrix(.24 0 0 .24 30.5 30.682)" overflow="visible" opacity=".04"/><linearGradient
            id="SVGID_1_" gradientUnits="userSpaceOnUse" x1="225" y1="408.318" x2="225" y2="41.682"><stop offset="0" stop-color="#f9f9f9"/>
        <stop offset="1" stop-color="#fff"/></linearGradient><path
            d="M42.5 408.3l25.8-94.1C52.4 286.6 44 255.4 44 223.3c0-100.2 81.6-181.7 181.7-181.7 48.6 0 94.2 18.9 128.6 53.3 34.3 34.3 53.2 80 53.2 128.5 0 100.2-81.6 181.7-181.7 181.7h-.1c-30.4 0-60.3-7.6-86.8-22.1l-96.4 25.3zm100.8-58.1l5.5 3.3c23.2 13.8 49.8 21 76.9 21.1h.1c83.3 0 151-67.7 151-151 0-40.4-15.7-78.3-44.2-106.8-28.5-28.5-66.4-44.3-106.8-44.3-83.3 0-151.1 67.7-151.1 151 0 28.5 8 56.3 23.1 80.4l3.6 5.7-15.3 55.7 57.2-15.1z"
            fill="url(#SVGID_1_)"/></g></g>
    <g fill-rule="evenodd" clip-rule="evenodd" id="_445047880">
        <path d="M276.2 184c1.5-3 4.5-3 4.5-7.6-6.1 0-10.6 4.5-13.6 6.1L165.6 246l19.7 62.1c3-3 3-6.1 3-12.1 0-3 1.5-9.1 1.5-12.1v-10.6c1.5-1.5 1.5-3 1.5-6.1v-4.5c1.5-3 3-1.5 4.5-4.5 22.8-24.3 54.6-51.5 80.4-74.2z" fill="#ccd8e6"/>
    <path d="M115.6 227.9l50 18.2 106-66.6c3-1.5 6.1-3 9.1-3 0 4.5-6.1 9.1-9.1 12.1-22.7 19.7-60.6 48.5-80.3 71.2l18.2 13.6c3 0 10.6 7.6 12.1 9.1 3 1.5 15.1 10.6 16.7 13.6 3 0 3 1.5 4.5 3l15.1 10.6c6.1 4.5 12.1 12.1 22.7 4.5L314 162.7c4.5-25.7-7.6-21.2-24.2-15.1l-169.6 68.2c-6.1 3-12.1 10.6-4.6 12.1z"
          fill="#fefefe"/>
    <path d="M185.3 308.1l1.5 1.5c3 0 6.1-1.5 9.1-4.5l25.7-22.7c-1.5-1.5-9.1-9.1-12.1-9.1l-18.2-13.6-6 48.4z"
          fill="#abbdd5"/>
    </g>
</svg>