<svg version="1.1" id="Layer_1" xmlns="http://www.w3.org/2000/svg" xmlns:xlink="http://www.w3.org/1999/xlink" x="0" y="0" viewBox="0 0 450 450" xml:space="preserve"><style>.st9{fill-rule:evenodd;clip-rule:evenodd;fill:#fffffe}</style><g id="shape_4_4_"><g id="shape_4_5_"><image width="1835" height="1841" xlink:href="E1DD7B7A.png" transform="matrix(.24 0 0 .24 5.42 9.642)" overflow="visible" opacity=".06"/><image width="1596" height="1603" xlink:href="E1DD7B7E.png" transform="matrix(.24 0 0 .24 33.5 36.682)" overflow="visible" opacity=".15"/><path d="M42.5 408.3l25.8-94.1C52.4 286.6 44 255.4 44 223.3c0-100.2 81.6-181.7 181.7-181.7 48.6 0 94.2 18.9 128.6 53.3 34.3 34.3 53.2 80 53.2 128.5 0 100.2-81.6 181.7-181.7 181.7h-.1c-30.4 0-60.3-7.6-86.8-22.1l-96.4 25.3zm100.8-58.1l5.5 3.3c23.2 13.8 49.8 21 76.9 21.1h.1c83.3 0 151-67.7 151-151 0-40.4-15.7-78.3-44.2-106.8-28.5-28.5-66.4-44.3-106.8-44.3-83.3 0-151.1 67.7-151.1 151 0 28.5 8 56.3 23.1 80.4l3.6 5.7-15.3 55.7 57.2-15.1z" fill="#fff"/></g></g><path id="shape_3_2_" d="M48.8 402l24.9-90.9c-15.4-26.6-23.4-56.8-23.4-87.7C50.3 126.7 129 48 225.7 48c46.9 0 91 18.3 124.1 51.4 33.1 33.2 51.4 77.2 51.3 124.1 0 96.7-78.7 175.4-175.4 175.4h-.1c-29.4 0-58.2-7.4-83.8-21.3l-93 24.4z" fill="#7b519d"/><g id="shape_2_4_"><g id="shape_2_5_"><image width="1621" height="1628" xlink:href="E1DD7B79.png" transform="matrix(.24 0 0 .24 30.5 30.682)" overflow="visible" opacity=".04"/><linearGradient id="SVGID_1_" gradientUnits="userSpaceOnUse" x1="225" y1="408.318" x2="225" y2="41.682"><stop offset="0" stop-color="#f9f9f9"/><stop offset="1" stop-color="#fff"/></linearGradient><path d="M42.5 408.3l25.8-94.1C52.4 286.6 44 255.4 44 223.3c0-100.2 81.6-181.7 181.7-181.7 48.6 0 94.2 18.9 128.6 53.3 34.3 34.3 53.2 80 53.2 128.5 0 100.2-81.6 181.7-181.7 181.7h-.1c-30.4 0-60.3-7.6-86.8-22.1l-96.4 25.3zm100.8-58.1l5.5 3.3c23.2 13.8 49.8 21 76.9 21.1h.1c83.3 0 151-67.7 151-151 0-40.4-15.7-78.3-44.2-106.8-28.5-28.5-66.4-44.3-106.8-44.3-83.3 0-151.1 67.7-151.1 151 0 28.5 8 56.3 23.1 80.4l3.6 5.7-15.3 55.7 57.2-15.1z" fill="url(#SVGID_1_)"/></g></g><g id="shape_1_4_"><g id="shape_1_5_"><image width="870" height="814" xlink:href="E1DD7B7B.png" transform="matrix(.24 0 0 .24 109 139)" overflow="visible" opacity=".06"/><path d="M167.9 157c-3.4-7.6-7-7.7-10.2-7.8-2.6-.1-5.7-.1-8.7-.1-3 0-7.9 1.1-12.1 5.7-4.2 4.5-15.9 15.5-15.9 37.9 0 22.3 16.3 43.9 18.5 47 2.3 3 31.4 50.3 77.6 68.5 38.4 15.1 46.2 12.1 54.5 11.4 8.3-.8 26.9-11 30.7-21.6 3.8-10.6 3.8-19.7 2.6-21.6-1.1-1.9-4.2-3-8.7-5.3-4.5-2.3-26.9-13.3-31-14.8-4.2-1.5-7.2-2.3-10.2 2.3-3 4.5-11.7 14.8-14.4 17.8-2.6 3-5.3 3.4-9.8 1.1-4.5-2.3-19.2-7.1-36.5-22.5-13.5-12-22.6-26.9-25.3-31.4-2.6-4.5-.3-7 2-9.3 2-2 4.5-5.3 6.8-8s3-4.5 4.5-7.6c1.5-3 .8-5.7-.4-8-1.1-2.3-9.9-24.8-14-33.7z" fill-rule="evenodd" clip-rule="evenodd" fill="#fff"/></g></g><path class="st9" d="M263.6 215.6c-.8-9.8-5.5-18.8-12.6-25.6-7-6.8-16.3-11.3-26.3-12.2-.7-.1-1.5-.1-2.5-.1h-2.4c-2.8.1-5.4 1.4-7.1 3.3-1.7 1.9-2.8 4.5-2.7 7.2v.1c.1 2.8 1.4 5.4 3.3 7.1 1.9 1.8 4.5 2.8 7.4 2.7h1.1c.3 0 .7 0 1.2.1 5.1.4 9.9 2.9 13.6 6.4 3.7 3.5 6.2 8 6.6 12.7 0 .5.1.9.1 1.1v1.1c-.2 2.8.8 5.5 2.5 7.4 1.7 2 4.2 3.3 7 3.5h.7c2.7 0 5.1-1 7-2.8 1.8-1.7 3.1-4.1 3.2-6.8.1-.8.1-1.7.1-2.7-.1-.8-.2-1.7-.2-2.5z"/><path class="st9" d="M275.3 166c-5.6-5.6-12.1-10.1-19.1-13.4-7-3.3-14.5-5.4-22.2-6-2.1-.2-4.3-.3-6.5-.2-2.2 0-4.3.2-6.4.5-2.8.4-5.2 1.8-6.8 3.9-1.6 2.1-2.4 4.7-2.1 7.5.4 2.8 1.8 5.2 3.9 6.8 2.1 1.6 4.8 2.4 7.6 2.1 1.4-.2 2.8-.3 4.3-.3 1.4 0 2.8 0 4.3.2 5.3.5 10.5 1.9 15.3 4.2 4.8 2.3 9.3 5.4 13.2 9.4 3.8 3.8 6.8 8 8.9 12.5 2.2 4.5 3.5 9.3 3.9 14.2.1 1.4.2 2.7.1 3.9 0 1.3-.1 2.6-.3 3.9-.4 2.8.5 5.5 2.1 7.6 1.6 2.1 4 3.5 6.8 3.9.2 0 .4 0 .6.1h.6c2.6 0 4.9-1 6.8-2.6 1.8-1.6 3.1-3.8 3.4-6.4.3-2 .4-4 .4-6.1 0-2.1 0-4.1-.2-6.1-.6-7.3-2.6-14.5-5.8-21.1-3-6.8-7.3-13-12.8-18.5z"/><path class="st9" d="M317.1 166c-4.3-9.1-10.3-17.6-17.6-24.9-7.5-7.5-16.2-13.6-25.7-18.1-9.5-4.4-19.6-7.2-30-8.1-3.4-.3-6.8-.4-10.3-.3-3.4.1-6.8.4-10.2 1-2.8.4-5.2 2-6.7 4.1-1.5 2.1-2.3 4.8-1.8 7.6.4 2.8 2 5.2 4.1 6.7 2.1 1.5 4.8 2.3 7.6 1.8 2.5-.4 5.1-.6 7.7-.7 2.5-.1 5.1 0 7.8.2 8 .7 15.8 2.8 23.1 6.3 7.3 3.4 14 8.2 19.9 14 5.7 5.7 10.2 12.2 13.6 19.1 3.3 7 5.4 14.4 6 22 .2 2.6.3 5.2.2 7.8-.1 2.5-.4 5.1-.8 7.7-.5 2.8.2 5.5 1.7 7.6 1.5 2.1 3.8 3.7 6.6 4.2.3.1.6.1.9.1h.9c2.5 0 4.8-.9 6.6-2.4 1.8-1.5 3.1-3.6 3.5-6.1.6-3.4 1-6.8 1.1-10.3.1-3.5.1-7-.2-10.4-.9-10-3.6-19.8-8-28.9z"/></svg>