<svg version="1.1" id="Layer_1" xmlns="http://www.w3.org/2000/svg" x="0" y="0" viewBox="0 0 145 140"
     xml:space="preserve"><style>.st2{fill:#231f20}</style>
    <path d="M77.4 40.5l8.6-6.2S71.4 9.9 68.2 6.2C65.1 2.4 53.8 0 53.8 0h44.7c4.4.8 6.9 5.8 6.9 5.8l8.1 12.8 8.6-5.1-12.8 27H77.4zm-5.5-20.3S67.3 10 59.3 5.7C50.5 1 43.4 2.1 40.7 7.2S21 40.5 21 40.5h38l12.9-20.3zm-47.7 94.9c.5 10 5.2 15.5 10.9 15.1 5.7-.4 38.6-.3 38.6-.3V97.3L30 96.8s-6.3 9.1-5.8 18.3zM130.1 98c-4.9.7-33.3.4-33.3.4L96 87.8l-16.8 27.1L95.5 140l.2-10 15.1-.2s4.9.9 8.6-2.9c3.2-5.1 23.5-38 23.5-38s-8 8.4-12.8 9.1zm-109.2 8.6c1.9-4.6 17.2-38.8 17.2-38.8l9.3 5.2-13.6-28.9H3.9l8.3 5.6-9.9 24S-.9 81.4.8 85.8c2.6 5.4 20.8 36.4 20.8 36.4s-3.6-8.3-.7-15.6zm95.8-11.7s11.8.7 18.4-4.3c8.6-5 11.4-11 8.5-15.9-2.9-4.9-18-29.8-18-29.8l-19.9 27.2 11 22.8z"
          fill="#0b7a8c"/>
    <path d="M35.3 93.8h77.8c6.7 0 12.1-5.5 12.1-12.1V56.6c0-6.7-5.5-12.1-12.1-12.1H35.3c-6.7 0-12.1 5.5-12.1 12.1v25.1c0 6.6 5.4 12.1 12.1 12.1z"
          fill="#ffcd10"/>
    <path fill="#231f20"
          d="M113.1 94.8H35.3c-7.2 0-13.1-5.9-13.1-13.1V56.6c0-7.2 5.9-13.1 13.1-13.1h77.8c7.2 0 13.1 5.9 13.1 13.1v25.1c0 7.2-5.9 13.1-13.1 13.1zM35.3 45.5c-6.1 0-11.1 5-11.1 11.1v25.1c0 6.1 5 11.1 11.1 11.1h77.8c6.1 0 11.1-5 11.1-11.1V56.6c0-6.1-5-11.1-11.1-11.1H35.3z"/>
    <path fill="#231f20"
          d="M57.2 57.5h-7.5v1.8h6.8v3.3h-6.8v2.1h7.7v3.6h-12V54h11.8v3.5zm15.1 4.9c0 4.5-2.4 6.1-6.5 6.1-4.4 0-6.4-2.1-6.4-5.8V54h4.3v8.7c0 1.5.6 2.2 2.2 2.2 1.4 0 2-.7 2-2.2V54h4.3v8.4zm9.9-8.4c2.2 0 5.1.9 5.1 4.2 0 1.5-.8 2.9-2.1 3.5 1.4.4 2 2.3 2.1 3.5l.1 1.5c0 .5.1 1.1.4 1.5h-4.3c-.2-.4-.2-.9-.3-1.3l-.1-.8c-.1-1.6-.4-2.9-2.4-2.9h-1.8v5h-4.3V54h7.6zm-3.3 6.2h2.4c1 0 1.8-.4 1.8-1.5 0-1-.7-1.4-2-1.4h-2.2v2.9zm24.4.9c0 4.4-2.9 7.4-7.1 7.4-4.3 0-7.3-3-7.3-7.5s2.9-7.4 7.3-7.4c4.3 0 7.1 3 7.1 7.5zm-9.9-.1c0 2.5 1 4 2.8 4 1.8 0 2.7-1.4 2.7-4.1 0-2.4-1-3.8-2.7-3.8-1.8 0-2.8 1.5-2.8 3.9zM40.2 84.4c-2.8 0-4.6-2-4.6-5 0-2.7 1.8-4.9 4.6-4.9 2.3 0 3.9 1.4 4.1 3.4h-2c-.2-1-1-1.6-2.1-1.6-1.8 0-2.5 1.6-2.5 3.2 0 2 1 3.2 2.5 3.2 1.2 0 2-.7 2.2-2.1h2.1c-.2 2.2-1.7 3.8-4.3 3.8zm14.6-5c0 2.9-1.9 4.9-4.7 4.9-2.8 0-4.7-2-4.7-4.9 0-3 1.9-5 4.7-5 2.8 0 4.7 2 4.7 5zm-7.3 0c0 2 1 3.3 2.6 3.3s2.5-1.2 2.5-3.3c0-2-1-3.2-2.6-3.2-1.5-.1-2.5 1.2-2.5 3.2zm8.7-4.7h2.1l3.9 6.3v-6.3h2v9.5h-2.1l-3.9-6.4v6.4h-2v-9.5zm16.9 1.7h-2.8v7.7h-2.1v-7.7h-2.8v-1.8h7.8v1.8zm8.4 7.7h-2.2l-.8-2.1H75l-.8 2.1h-2.1l3.6-9.5h2.1l3.7 9.5zM76.8 77l-1.3 3.5H78L76.8 77zm7.5 7.1h-2.1v-9.5h2.1v9.5zm1.9-9.4h2.1l3.9 6.3v-6.3h2v9.5h-2.1l-3.9-6.4v6.4h-2v-9.5zm16.9 1.7h-5v2.1h4.6v1.6h-4.6v2.3h5.1v1.7H96v-9.5h7.1v1.8zm6.3-1.7c1.7 0 3.2.8 3.2 2.7 0 1.1-.6 2-1.5 2.3 1 .2 1.3 1.3 1.4 2.2.1.6.1 1.9.5 2.2h-2.2c-.2-.5-.2-1.4-.3-1.9-.1-1.3-.5-1.8-1.9-1.8h-1.8v3.7h-2.1v-9.5h4.7zm-2.6 4.2h2c1 0 1.8-.2 1.8-1.3s-.9-1.3-1.7-1.3h-2.1v2.6z"/></svg>