<svg display="none" xmlns="http://www.w3.org/2000/svg">
    <symbol id="arrowSlider" viewBox="0 0 512.002 512.002">
        <path d="M388.425,241.951L151.609,5.79c-7.759-7.733-20.321-7.72-28.067,0.04c-7.74,7.759-7.72,20.328,0.04,28.067l222.72,222.105
			L123.574,478.106c-7.759,7.74-7.779,20.301-0.04,28.061c3.883,3.89,8.97,5.835,14.057,5.835c5.074,0,10.141-1.932,14.017-5.795
			l236.817-236.155c3.737-3.718,5.834-8.778,5.834-14.05S392.156,245.676,388.425,241.951z"/>
    </symbol>
    <symbol id="offer1" viewBox="0 0 160 110">
            <path d="M62.9 59h8.3l-10-40h11.5l3.2 23.9H84l3.4-24h11.5L88.9 59h8.3l10.7-43.1c.3-1.2 0-2.4-.7-3.4-.8-.9-1.9-1.5-3.1-1.5H56c-1.2 0-2.4.5-3.1 1.5-.8.9-1.1 2.3-.7 3.4L62.9 59z"></path>
            <path d="M80 50.9l6.9 17.2h17L89.2 80.7l8 18.3L80 87.6 62.8 99l8-18.3L56 68.1h17.1z"></path>
    </symbol>
    <symbol id="offer2" viewBox="0 0 160 110">
        <path d="M110.5 82.5v4h-4.1c2.8 2.7 2.8 7.1.1 9.9-2.7 2.8-7.1 2.8-9.9.1s-2.8-7.1-.1-9.9l.1-.1h-2.1v-4h-29v4h-3.1c2.8 2.7 2.8 7.1.1 9.9-2.7 2.8-7.1 2.8-9.9.1s-2.8-7.1-.1-9.9l.1-.1h-3.1v-4c-5.5 0-10-4.5-10-10v-37c0-5.5 4.5-10 10-10h61c5.5 0 10 4.5 10 10v37c0 5.5-4.5 10-10 10zm-9 11c1.1 0 2-.9 2-2s-.9-2-2-2-2 .9-2 2 .9 2 2 2zm-44 0c1.1 0 2-.9 2-2s-.9-2-2-2-2 .9-2 2 .9 2 2 2zm2-58c-3.3 0-6 2.7-6 6v35h12v-35c0-3.3-2.7-6-6-6zm21 0c-3.3 0-6 2.7-6 6v35h12v-35c0-3.3-2.7-6-6-6zm20 0c-3.3 0-6 2.7-6 6v35h12v-35c0-3.3-2.7-6-6-6zm17-13h-74c-1.7 0-3-1.3-3-3s1.3-3 3-3h15c0-2.2 3.8-5 6-5h33c2.2 0 7 2.8 7 5h13c1.7 0 3 1.3 3 3s-1.3 3-3 3z"></path>
    </symbol>
    <symbol id="offer3" viewBox="0 0 160 110">
        <path d="M115.6 19.8H44.2c-4.9 0-8.9 3.9-8.9 8.8v53c0 4.8 4 8.8 8.9 8.8h71.5c4.9 0 8.9-3.9 8.9-8.8v-53c.1-4.9-3.9-8.8-9-8.8zm.2 61.7H44.2V55h71.5v26.5zm0-44.2H44.2v-8.8h71.5v8.8zM85.3 68.2c0-3.8 3.1-6.8 6.8-6.8 2.3 0 4.3 1.1 5.5 2.9 1.2-1.7 3.3-2.9 5.5-2.9 3.8 0 6.8 3.1 6.8 6.8 0 3.8-3.1 6.8-6.8 6.8-2.3 0-4.3-1.1-5.5-2.9-1.2 1.7-3.3 2.9-5.5 2.9-3.7 0-6.8-3.1-6.8-6.8z"></path>
    </symbol>
    <symbol id="offer4" viewBox="0 0 160 110">
        <path d="M34.1 57v3.9c0 1.1-.9 2-2 2H16.7c-1.1 0-2-.9-2-2V57c0-1.1.9-2 2-2H32c1.2 0 2.1.9 2.1 2zm-2 21H16.7c-1.1 0-2 .9-2 2v3.9c0 1.1.9 2 2 2H32c1.1 0 2-.9 2-2V80c.1-1.1-.8-2-1.9-2zm-5.2-5.6v-3.9c0-1.1-.9-2-2-2H9.6c-1.1 0-2 .9-2 2v3.9c0 1.1.9 2 2 2h15.3c1.1 0 2-.9 2-2zm125.5 7.1c0 .6 0 1.2-.2 1.6-.2.6-.4.8-.8 1.2s-.8.6-1 .8c-.2.2-.6.4-1.4.4-.6.2-1.2.2-1.4.2h-7c0 4.6-1.6 8.5-4.8 11.7-3.2 3.2-7.3 4.8-11.7 4.8-4.6 0-8.5-1.6-11.7-4.8-3.2-3.2-4.8-7.3-4.8-11.7H82.7c0 4.6-1.6 8.5-4.8 11.7-3.2 3.2-7 4.8-11.7 4.8-4.6 0-8.5-1.6-11.7-4.8-3.2-3.2-4.8-7.3-4.8-11.7h-3c-.2 0-.6-.2-1.4-.2-.6 0-1.2-.2-1.4-.4-.2-.2-.6-.6-1-.8-.4-.4-.6-.8-.8-1.2s-.2-1-.2-1.6V13.8c0-1 .4-2 1.2-2.8.8-.8 1.6-1.2 2.8-1.2h65.7c1 0 2 .4 2.8 1.2.8.8 1.2 1.6 1.2 2.8v12.3h10.3c1.2 0 2.4.2 3.8.8 1.4.6 2.4 1.2 3.2 2l12.7 12.7c.6.6 1 1.2 1.4 2 .4.8.6 1.4.8 2s.4 1.4.4 2.4c.2 1 .2 1.8.2 2.2v25.1c1 0 2 .4 2.8 1.2.8 1 1.2 1.8 1.2 3zm-77.7 4.2c0-2.2-.8-4.2-2.4-5.8-1.6-1.6-3.6-2.4-5.8-2.4s-4.2.8-5.8 2.4-2.4 3.6-2.4 5.8c0 2.2 1 4 2.4 5.8 1.6 1.6 3.6 2.4 5.8 2.4s4.2-.8 5.8-2.4c1.6-1.6 2.4-3.6 2.4-5.8zm33.4-63.2c0-1.1-.9-2-2-2H51.3c-1.1 0-2 .9-2 2v44c0 1.1.9 2 2 2H106c1.1 0 2-.9 2-2v-44zm24.2 63.2c0-2.2-.8-4.2-2.4-5.8-1.6-1.6-3.6-2.4-5.8-2.4s-4.2.8-5.8 2.4c-1.6 1.6-2.4 3.6-2.4 5.8 0 2.2.8 4 2.4 5.8 1.6 1.6 3.6 2.4 5.8 2.4s4.2-.8 5.8-2.4c1.6-1.6 2.4-3.6 2.4-5.8zm8-34.6c0-.6-.2-1-.6-1.4l-12.5-12.5c-.4-.4-.8-.6-1.4-.6h-10.1v16.3h24.6v-1.8z"></path>
    </symbol>
    <symbol id="offer5" viewBox="0 0 160 110">
        <path d="M125.2 59.9V49.6l-12.5-4.2-2.9-7.1 5.7-11.8-7.2-7.2-11.7 5.9-7.1-2.9-4.6-12.5H74.6l-4 12.5-7.2 2.9-11.8-5.7-7.2 7.2 5.9 11.7-2.9 7.1L35 50v10.3l12.5 4.2 2.9 7.1-5.7 11.8 7.2 7.2 11.7-5.9 7.1 2.9 4.5 12.4h10.3l4-12.5 7.2-2.9 11.8 5.7 7.2-7.2-6-11.7 3.1-7.1 12.4-4.4zM79.9 74.4c-10.7 0-19.4-8.6-19.4-19.4s8.6-19.5 19.4-19.5 19.4 8.6 19.4 19.4-8.6 19.5-19.4 19.5z"></path>
    </symbol>
    <symbol id="offer6" viewBox="0 0 160 110">
        <path d="M108.6 41.1H59c-4.5 0-8.1 3.6-8.1 8.1v30.1c0 4.5 3.6 8.1 8.1 8.1v3.3h2.5l-.1.1c-2.2 2.3-2.2 5.9.1 8.1 2.3 2.2 5.9 2.2 8.1-.1 2.2-2.3 2.2-5.9-.1-8.1H72v-3.3h23.6v3.3h1.7l-.1.1c-2.2 2.3-2.2 5.9.1 8.1 2.3 2.2 5.9 2.2 8.1-.1 2.2-2.3 2.2-5.9-.1-8.1h3.3v-3.3c4.5 0 8.1-3.6 8.1-8.1V49.2c0-4.5-3.6-8.1-8.1-8.1zM65.5 96.4c-.9 0-1.6-.7-1.6-1.6 0-.9.7-1.6 1.6-1.6s1.6.7 1.6 1.6c0 .8-.7 1.6-1.6 1.6zM72 82.5h-9.8V54.1c0-2.7 2.2-4.9 4.9-4.9s4.9 2.2 4.9 4.9v28.4zm17.1 0h-9.8V54.1c0-2.7 2.2-4.9 4.9-4.9s4.9 2.2 4.9 4.9v28.4zm12.2 13.9c-.9 0-1.6-.7-1.6-1.6 0-.9.7-1.6 1.6-1.6.9 0 1.6.7 1.6 1.6 0 .8-.7 1.6-1.6 1.6zm4.1-13.9h-9.8V54.1c0-2.7 2.2-4.9 4.9-4.9s4.9 2.2 4.9 4.9v28.4zm11.3-46.3c0 1.3-1.1 2.4-2.4 2.4H54.1c-1.3 0-2.4-1.1-2.4-2.4s1.1-2.4 2.4-2.4h12.2c0-1.8 3.1-4.1 4.9-4.1H98c1.8 0 5.7 2.3 5.7 4.1h10.6c1.3-.1 2.4 1 2.4 2.4zm1.5-10.7v1H47.5l6 6.8-.7.7-5.5-6.1v71l5.4-7.9.8.6-6.7 9.8-7.2-9.8.8-.6 5.9 8V27.7l-5.9 6.2-.7-.7 6.5-6.7H29.8v-1h16.5V8.7h1v16.8h70.9z"></path>
    </symbol>
    <symbol id="dropdown" viewBox="0 0 213.333 213.333">
        <polygon points="0,53.333 106.667,160 213.333,53.333"/>
    </symbol>
    <symbol id="download" viewBox="0 0 512 512">
        <path d="M382.56 233.376A15.96 15.96 0 00368 224h-64V16c0-8.832-7.168-16-16-16h-64c-8.832 0-16 7.168-16 16v208h-64a16.013 16.013 0 00-14.56 9.376c-2.624 5.728-1.6 12.416 2.528 17.152l112 128A15.946 15.946 0 00256 384c4.608 0 8.992-2.016 12.032-5.472l112-128c4.16-4.704 5.12-11.424 2.528-17.152z"></path>
        <path d="M432 352v96H80v-96H16v128c0 17.696 14.336 32 32 32h416c17.696 0 32-14.304 32-32V352h-64z"></path>
    </symbol>
    <symbol id="popup__close" viewBox="0 0 29.68 29.688">
        <path d="M1769.64 374.649l.71.707-28.99 28.992-.71-.708zm-28.28 0l28.99 28.991-.71.708-28.99-28.992z"
              transform="translate(-1740.66 -374.656)"/>
    </symbol>
<!--    <symbol id="step1" viewBox="0 0 89.6 88.7"></symbol>-->
</svg>