<?xml version="1.0" encoding="utf-8"?>
<!-- Generator: Adobe Illustrator 24.0.1, SVG Export Plug-In . SVG Version: 6.00 Build 0)  -->
<svg version="1.1" baseProfile="basic" id="Layer_1"
	 xmlns="http://www.w3.org/2000/svg" xmlns:xlink="http://www.w3.org/1999/xlink" x="0px" y="0px" viewBox="0 0 60.2 60.2"
	 xml:space="preserve">
<style type="text/css">
	.st0{fill:#0B7A8C;}
	.st1{fill:#FFCD10;}
	.st2{fill:#231F20;}
	.st3{fill:#DDF0F4;}
	.st4{fill:#959595;}
	.st5{fill:#FFEF00;}
	.st6{fill:#FFFFFF;}
	.st7{fill-rule:evenodd;clip-rule:evenodd;fill:#FFFFFF;}
	.st8{fill:none;}
	.st9{fill:#999999;}
	.st10{fill:#0033FF;}
	.st11{fill:#669966;}
	.st12{fill:#663300;}
	.st13{fill:#FF9933;}
	.st14{fill:#FFFF66;}
	.st15{fill:#FF3333;}
	.st16{fill:#C33E3F;}
	.st17{fill:url(#SVGID_1_);}
	.st18{fill:#147B8C;}
</style>
<g>
	<circle class="st18" cx="30.1" cy="30.1" r="30.1"/>
	<g>
		<g>
			<path class="st6" d="M24.5,31.8v-4.2h-0.4c-3.3,0-6-2.7-6-6v-4.8c0-3.3,2.7-6,6-6h11.9c3.3,0,6,2.7,6,6v4.8c0,3.3-2.7,6-6,6h-6.7
				L24.5,31.8z M24.1,11.8c-2.8,0-5,2.2-5,5v4.8c0,2.8,2.2,5,5,5h1.4v3l3.5-3h7.1c2.8,0,5-2.2,5-5v-4.8c0-2.8-2.2-5-5-5H24.1z"/>
		</g>
		<g>
			<rect x="25.8" y="15.6" class="st6" width="8.5" height="1"/>
		</g>
		<g>
			<rect x="25.8" y="18.6" class="st6" width="8.5" height="1"/>
		</g>
		<g>
			<rect x="25.8" y="21.5" class="st6" width="8.5" height="1"/>
		</g>
	</g>
	<g>
		<path class="st6" d="M10.3,43.1v-7.8h2.4c0.8,0,1.4,0.2,1.9,0.5s0.6,0.9,0.6,1.6c0,0.4-0.1,0.7-0.3,1s-0.4,0.5-0.7,0.6
			c0.4,0.1,0.6,0.3,0.8,0.6c0.2,0.3,0.3,0.7,0.3,1.1c0,0.8-0.2,1.3-0.6,1.7s-1,0.6-1.8,0.6H10.3z M11.9,38.5h0.8
			c0.6,0,0.9-0.3,0.9-1c0-0.4-0.1-0.6-0.2-0.8c-0.1-0.2-0.4-0.2-0.7-0.2h-0.8V38.5z M11.9,39.7v2.1h1c0.3,0,0.5-0.1,0.6-0.3
			s0.2-0.4,0.2-0.7c0-0.7-0.3-1.1-0.8-1.1H11.9z"/>
		<path class="st6" d="M18.1,43.1h-1.6v-7.8h1.6V43.1z"/>
		<path class="st6" d="M25.8,45h-1.5v-1.9h-3.7V45h-1.5l-0.1-3.2h0.5c0.2-0.2,0.4-0.6,0.5-1c0.1-0.5,0.2-1.1,0.3-1.8l0.2-3.7h4.5
			v6.5H26L25.8,45z M21.3,41.8h2.3v-5.2h-1.4L22,38.7C21.9,40,21.7,41.1,21.3,41.8z"/>
		<path class="st6" d="M31.2,36.6h-2.8v6.5h-1.6v-7.8h4.4V36.6z"/>
		<path class="st6" d="M34.7,38.8l1.1-3.5h1.7l-2.1,6.3c-0.2,0.6-0.5,1.1-0.8,1.3c-0.3,0.2-0.6,0.4-1,0.4h-0.2l-0.4,0l0-1.3
			c0,0,0.2,0,0.3,0c0.2,0,0.4,0,0.5-0.1s0.2-0.3,0.3-0.6l0.1-0.3l-2.2-5.6h1.7L34.7,38.8z"/>
		<path class="st6" d="M40.5,39.9h-0.7v3.2h-1.6v-7.8h1.6v3.1h0.5l1.4-3.1h1.9l-1.9,3.7l2.1,4.2H42L40.5,39.9z"/>
		<path class="st6" d="M48.3,35.3h1.6v7.8h-1.6v-5.2L46,43.1h-1.6v-7.8H46v5.2L48.3,35.3z"/>
	</g>
</g>
</svg>
