<svg version="1.1" id="Layer_1" xmlns="http://www.w3.org/2000/svg" x="0" y="0" viewBox="0 0 90 90" xml:space="preserve"><style/><path d="M88.9 46.4L46.4 88.9c-.8.8-2 .8-2.8 0L1.1 46.4c-.8-.8-.8-2 0-2.8L43.6 1.1c.8-.8 2-.8 2.8 0l42.5 42.5c.8.8.8 2 0 2.8z" fill="#ffef00"/><path d="M45 90c-.7 0-1.3-.3-1.7-.7L.7 46.7c-1-1-1-2.5 0-3.5L43.3.7c.9-.9 2.6-.9 3.5 0l42.5 42.5c1 1 1 2.5 0 3.5L46.7 89.3c-.4.4-1 .7-1.7.7zm0-89c-.4 0-.8.2-1 .4L1.4 43.9c-.6.6-.6 1.5 0 2.1L44 88.6c.6.6 1.5.6 2.1 0L88.6 46c.6-.6.6-1.5 0-2.1L46 1.4c-.2-.3-.6-.4-1-.4z"/><path d="M37 28.1c-2.3 0-4.2-1.9-4.2-4.2s1.9-4.2 4.2-4.2 4.2 1.9 4.2 4.2-1.9 4.2-4.2 4.2zm2.9 6.7l14.8-6.7H34.4l-6.2 12L30 65.7h1.1l3.3-14.1 6.2 14.1h1.2l-2-24.8.1-6.1zm12.5 3.4l7.2.9-1.6-6.5-5.5-.9v6.5zm12.4 4.1l-3.4 20.2h1v2H47.8v-2h1l-3.4-20.2H44v-2h22.1v2h-1.3zm-4.6 15.1h-.9l-.1 1.7h.8l.2-1.7zm-10 1.8h.9l-.1-1.8h-1.1l.3 1.8zm2-13.2l.1 1.5h1.8V46h-1.9zm1.9-2v-1.7H52V44h2.1zM56 55.5h1.4l.2-2H56v2zm-1.9-2.1h-1.4l.1 2H54v-2zm3.7-1.9l.2-1.9h-2v1.9h1.8zm-3.7-2h-1.6l.1 1.9h1.5v-1.9zM50.2 46H48l.3 1.5h2l-.1-1.5zm-1.6 3.5l.3 1.9h1.6l-.1-1.9h-1.8zm.7 3.9l.3 2h1.3l-.1-2h-1.5zm3.8 5.8h1v-1.7H53l.1 1.7zm.1 2l.1 1.4h.7v-1.4h-.8zm2.8 1.4h.8l.1-1.4H56v1.4zm1.1-3.4l.1-1.7H56v1.7h1.1zm3.4-3.7l.3-2h-1.3l-.2 2h1.2zm.7-4l.3-1.9h-1.7l-.2 1.9h1.6zm.7-4l.3-1.5h-2l-.1 1.5h1.8zM58.2 46H56v1.5h2l.2-1.5zm.2-2l.1-1.7H56V44h2.4zm-11-1.7l.3 1.7h2.4l-.1-1.7h-2.6zm3.4 20.3h.6l-.1-1.4h-.7l.2 1.4zm8.5 0l.2-1.4H59l-.1 1.4h.4zm3.5-20.3h-2.3l-.2 1.7h2.2l.3-1.7z"/></svg>